<svg width="25" height="24" viewBox="0 0 25 24" fill="none" xmlns="http://www.w3.org/2000/svg">
<path d="M14.4498 2.49758L13.4547 2.59709V2.59709L14.4498 2.49758ZM14.2274 1.44581L15.0598 0.891621L15.0598 0.891617L14.2274 1.44581ZM14.8817 4.35552L15.5678 3.62799L15.5678 3.62799L14.8817 4.35552ZM15.5385 4.62756L15.5678 3.62799L15.5385 4.62756ZM17.1577 3.61924L17.7909 4.3932V4.3932L17.1577 3.61924ZM18.0586 3.03277L17.8619 2.05231L17.8619 2.05231L18.0586 3.03277ZM18.5486 3.05721L18.2553 4.01323L18.2553 4.01323L18.5486 3.05721ZM21.0428 5.55135L21.9988 5.25806L21.0428 5.55135ZM21.0672 6.04136L20.0867 5.84464L20.0867 5.84465L21.0672 6.04136ZM20.4807 6.94231L19.7068 6.30907V6.30907L20.4807 6.94231ZM19.4724 8.56154L20.472 8.53221V8.5322L19.4724 8.56154ZM19.7444 9.21827L20.472 8.53221L20.472 8.5322L19.7444 9.21827ZM21.6024 9.65024L21.7668 8.66384L21.7345 8.65846L21.7019 8.6552L21.6024 9.65024ZM21.6024 9.65024L21.438 10.6366L21.4703 10.642L21.5029 10.6453L21.6024 9.65024ZM22.6542 9.87261L23.2084 9.04023L23.2084 9.04023L22.6542 9.87261ZM22.9834 10.2364L22.1 10.705L22.1 10.705L22.9834 10.2364ZM22.9835 13.7635L22.1 13.295L22.1 13.295L22.9835 13.7635ZM22.6541 14.1275L23.2082 14.9599L23.2082 14.9599L22.6541 14.1275ZM21.6025 14.3498L21.702 15.3448L21.6025 14.3498ZM19.745 14.7815L19.0176 14.0953L19.0176 14.0953L19.745 14.7815ZM19.4728 15.4386L18.4732 15.4095V15.4095L19.4728 15.4386ZM20.4809 17.0573L21.2548 16.4241L21.2548 16.4241L20.4809 17.0573ZM21.0672 17.958L22.0477 17.7611V17.7611L21.0672 17.958ZM21.0428 18.4483L21.9987 18.7417H21.9987L21.0428 18.4483ZM18.5487 20.9423L18.842 21.8983L18.842 21.8983L18.5487 20.9423ZM18.0586 20.9667L17.8619 21.9472L17.8619 21.9472L18.0586 20.9667ZM17.1577 20.3803L17.791 19.6063L17.7531 19.5754L17.7124 19.5482L17.1577 20.3803ZM17.1577 20.3803L16.5245 21.1542L16.5623 21.1852L16.603 21.2123L17.1577 20.3803ZM15.5385 19.372L15.5678 20.3715H15.5678L15.5385 19.372ZM14.8818 19.644L14.1957 18.9165L14.1957 18.9165L14.8818 19.644ZM14.4498 21.5022L15.4448 21.6017L14.4498 21.5022ZM14.2273 22.5543L13.395 22H13.395L14.2273 22.5543ZM13.8637 22.8833L14.3325 23.7667L14.3325 23.7667L13.8637 22.8833ZM10.3364 22.8834L9.86773 23.7668L9.86774 23.7668L10.3364 22.8834ZM9.97261 22.5542L10.805 22L10.805 22L9.97261 22.5542ZM9.75025 21.5024L10.7453 21.4029V21.4029L9.75025 21.5024ZM9.31826 19.6444L8.63222 20.372V20.372L9.31826 19.6444ZM8.66156 19.3724L8.63221 20.372H8.63221L8.66156 19.3724ZM7.0423 20.3807L7.66704 21.1616L7.67554 21.1547L7.0423 20.3807ZM7.04229 20.3807L6.41756 19.5998L6.40905 19.6068L7.04229 20.3807ZM6.1413 20.9672L5.94461 19.9868L5.9446 19.9868L6.1413 20.9672ZM5.65133 20.9428L5.94461 19.9868H5.94461L5.65133 20.9428ZM4.81317 20.2696L4.10607 20.9767L4.10607 20.9767L4.81317 20.2696ZM3.83039 19.2868L4.5375 18.5797L3.83039 19.2868ZM3.15716 18.4487L4.11318 18.1554L4.11318 18.1554L3.15716 18.4487ZM3.13272 17.9587L4.11318 18.1554L4.11318 18.1554L3.13272 17.9587ZM3.71922 17.0577L4.49318 17.6909L4.49318 17.6909L3.71922 17.0577ZM4.72756 15.4385L3.72799 15.4678V15.4678L4.72756 15.4385ZM4.45552 14.7817L3.72799 15.4678H3.72799L4.45552 14.7817ZM2.59758 14.3498L2.69708 13.3547L2.64746 13.3498H2.59758V14.3498ZM2.59757 14.3498L2.49806 15.3448L2.54769 15.3498H2.59757V14.3498ZM1.54582 14.1274L2.10001 13.295L2.10001 13.295L1.54582 14.1274ZM1.2166 13.7636L2.10001 13.295H2.10001L1.2166 13.7636ZM1.21665 10.2363L2.10001 10.705L2.10001 10.705L1.21665 10.2363ZM1.54573 9.87266L0.991447 9.04033L0.991444 9.04033L1.54573 9.87266ZM2.59772 9.65023L2.69722 10.6453H2.69722L2.59772 9.65023ZM4.45605 9.21812L3.7284 8.53217L3.7284 8.53217L4.45605 9.21812ZM4.72796 8.56166L3.7284 8.53217V8.53217L4.72796 8.56166ZM3.71941 6.942L2.94545 7.57524L3.71941 6.942ZM3.13274 6.04071L4.11323 5.84415L4.11323 5.84415L3.13274 6.04071ZM3.15716 5.55101L2.2011 5.25786L3.15716 5.55101ZM3.83057 4.7126L3.12346 4.00549L3.12346 4.00549L3.83057 4.7126ZM4.81323 3.72995L5.52033 4.43705V4.43705L4.81323 3.72995ZM5.65138 3.0567L5.3581 2.10067L5.3581 2.10067L5.65138 3.0567ZM6.14135 3.03226L5.94466 4.01273L6.14135 3.03226ZM7.04242 3.61884L7.74953 2.91173L7.71426 2.87646L7.67566 2.84488L7.04242 3.61884ZM7.04242 3.61884L6.33532 4.32595L6.37059 4.36122L6.40919 4.3928L7.04242 3.61884ZM8.66142 4.62713L8.63226 3.62756L8.66142 4.62713ZM9.31845 4.35498L10.0046 5.08241L9.31845 4.35498ZM9.75026 2.49744L8.75523 2.39793V2.39793L9.75026 2.49744ZM9.97254 1.44591L9.14009 0.89181V0.891811L9.97254 1.44591ZM10.3365 1.11654L9.86797 0.233087V0.233087L10.3365 1.11654ZM13.8636 1.1166L13.395 2L13.395 2L13.8636 1.1166ZM15.4448 2.39808C15.4184 2.13377 15.3931 1.87241 15.352 1.65354C15.3082 1.42063 15.233 1.15176 15.0598 0.891621L13.395 2C13.3597 1.94697 13.3675 1.92243 13.3864 2.02285C13.4079 2.13732 13.4248 2.29828 13.4547 2.59709L15.4448 2.39808ZM15.5678 3.62799C15.6646 3.7193 15.6341 3.77925 15.5839 3.53198C15.5356 3.29423 15.5004 2.95388 15.4448 2.39808L13.4547 2.59709C13.5059 3.10905 13.5507 3.56951 13.6238 3.92971C13.695 4.28039 13.827 4.73543 14.1956 5.08305L15.5678 3.62799ZM15.5678 3.62799L15.5678 3.62799L14.1956 5.08305C14.5521 5.41917 15.0195 5.61277 15.5092 5.62713L15.5678 3.62799ZM16.5244 2.84529C16.0921 3.19899 15.8265 3.41472 15.6243 3.54872C15.414 3.68809 15.4348 3.62409 15.5678 3.62799L15.5092 5.62713C16.0156 5.64198 16.4307 5.41358 16.729 5.21593C17.0354 5.01291 17.3927 4.71901 17.7909 4.3932L16.5244 2.84529ZM17.8619 2.05231C17.5555 2.11379 17.3122 2.25071 17.1165 2.38446C16.9327 2.51014 16.73 2.67709 16.5244 2.84529L17.7909 4.3932C18.0233 4.20305 18.1491 4.10123 18.2453 4.03549C18.3296 3.97783 18.3178 4.00069 18.2553 4.01323L17.8619 2.05231ZM18.8419 2.10119C18.5244 2.00376 18.1875 1.98696 17.8619 2.05231L18.2553 4.01323L18.2553 4.01323L18.8419 2.10119ZM20.0938 3.02331C19.906 2.83549 19.7209 2.64921 19.5505 2.50586C19.3692 2.35331 19.1407 2.19285 18.8419 2.10119L18.2553 4.01323C18.1944 3.99454 18.1849 3.97061 18.2631 4.03638C18.3522 4.11135 18.4673 4.22519 18.6796 4.43753L20.0938 3.02331ZM21.0766 4.00613L20.0938 3.02331L18.6796 4.43753L19.6624 5.42034L21.0766 4.00613ZM21.9988 5.25806C21.9071 4.95927 21.7467 4.7308 21.5941 4.54944C21.4508 4.37902 21.2645 4.19395 21.0766 4.00613L19.6624 5.42034C19.8748 5.63268 19.9886 5.74774 20.0636 5.83687C20.1294 5.91506 20.1054 5.90556 20.0867 5.84465L21.9988 5.25806ZM22.0477 6.23809C22.113 5.91241 22.0962 5.5756 21.9988 5.25806L20.0867 5.84465V5.84464L22.0477 6.23809ZM21.2547 7.57555C21.4229 7.36997 21.5898 7.16729 21.7155 6.98345C21.8493 6.78781 21.9862 6.5445 22.0477 6.23807L20.0867 5.84465C20.0993 5.78218 20.1221 5.77035 20.0645 5.85469C19.9987 5.95084 19.8969 6.07666 19.7068 6.30907L21.2547 7.57555ZM20.472 8.5322C20.4759 8.66525 20.4119 8.68603 20.5512 8.4757C20.6852 8.27347 20.901 8.00787 21.2547 7.57555L19.7068 6.30907C19.3809 6.70729 19.087 7.06458 18.884 7.37098C18.6864 7.66927 18.4579 8.0844 18.4728 8.59088L20.472 8.5322ZM20.472 8.5322L20.472 8.53221L18.4728 8.59087C18.4872 9.08054 18.6808 9.54792 19.0169 9.90433L20.472 8.5322ZM21.7019 8.6552C21.1461 8.59962 20.8057 8.56436 20.568 8.51611C20.3207 8.46593 20.3806 8.43537 20.472 8.53221L19.0169 9.90433C19.3645 10.273 19.8195 10.405 20.1702 10.4762C20.5304 10.5493 20.9909 10.5941 21.5029 10.6453L21.7019 8.6552ZM21.7668 8.66385L21.7668 8.66384L21.438 10.6366L21.438 10.6366L21.7668 8.66385ZM23.2084 9.04023C22.9483 8.86702 22.6794 8.79179 22.4465 8.74803C22.2276 8.7069 21.9662 8.68163 21.7019 8.6552L21.5029 10.6453C21.8017 10.6752 21.9627 10.6921 22.0772 10.7136C22.1776 10.7325 22.153 10.7403 22.1 10.705L23.2084 9.04023ZM23.8668 9.76773C23.7111 9.47432 23.4849 9.2243 23.2084 9.04023L22.1 10.705L22.1 10.705L23.8668 9.76773ZM24.1 11.3051C24.1 11.0394 24.1009 10.7768 24.0817 10.555C24.0614 10.3188 24.0133 10.0438 23.8668 9.76773L22.1 10.705C22.0701 10.6487 22.0803 10.6251 22.0891 10.7269C22.0991 10.8429 22.1 11.0048 22.1 11.3051H24.1ZM24.1 12.6951V11.3051H22.1V12.6951H24.1ZM23.8669 14.2321C24.0133 13.956 24.0614 13.6811 24.0817 13.445C24.1009 13.2232 24.1 12.9606 24.1 12.6951H22.1C22.1 12.9953 22.0991 13.1571 22.0891 13.2731C22.0804 13.3749 22.0702 13.3513 22.1 13.295L23.8669 14.2321ZM23.2082 14.9599C23.4848 14.7758 23.7112 14.5256 23.8669 14.2321L22.1 13.295V13.295L23.2082 14.9599ZM21.702 15.3448C21.9663 15.3184 22.2276 15.2931 22.4464 15.252C22.6793 15.2082 22.9481 15.133 23.2082 14.9599L22.1 13.295C22.153 13.2597 22.1776 13.2675 22.0772 13.2864C21.9627 13.3079 21.8018 13.3248 21.503 13.3547L21.702 15.3448ZM20.4724 15.4678C20.381 15.5645 20.3211 15.534 20.5684 15.4838C20.8061 15.4356 21.1463 15.4004 21.702 15.3448L21.503 13.3547C20.9912 13.4059 20.5308 13.4507 20.1707 13.5238C19.8201 13.5949 19.3652 13.7269 19.0176 14.0953L20.4724 15.4678ZM20.4724 15.4678L20.4724 15.4677L19.0176 14.0953C18.6812 14.4519 18.4875 14.9195 18.4732 15.4095L20.4724 15.4678ZM21.2548 16.4241C20.9012 15.9919 20.6856 15.7264 20.5516 15.5242C20.4123 15.314 20.4762 15.3347 20.4724 15.4677L18.4732 15.4095C18.4585 15.9158 18.6868 16.3308 18.8844 16.629C19.0874 16.9353 19.3812 17.2925 19.7069 17.6906L21.2548 16.4241ZM22.0477 17.7611C21.9861 17.4548 21.8493 17.2116 21.7155 17.016C21.5899 16.8322 21.423 16.6296 21.2548 16.4241L19.7069 17.6906C19.897 17.9229 19.9988 18.0487 20.0645 18.1448C20.1222 18.2291 20.0993 18.2173 20.0868 18.1549L22.0477 17.7611ZM21.9987 18.7417C22.0963 18.424 22.1131 18.087 22.0477 17.7611L20.0868 18.1549L20.0868 18.1549L21.9987 18.7417ZM21.0768 19.9933C21.2646 19.8055 21.4508 19.6205 21.5941 19.4501C21.7466 19.2688 21.9071 19.0404 21.9987 18.7417L20.0868 18.1549C20.1055 18.094 20.1294 18.0845 20.0636 18.1626C19.9887 18.2517 19.8749 18.3668 19.6626 18.579L21.0768 19.9933ZM20.0939 20.9762L21.0768 19.9933L19.6626 18.579L18.6797 19.562L20.0939 20.9762ZM18.842 21.8983C19.1408 21.8067 19.3692 21.6462 19.5506 21.4937C19.721 21.3503 19.9061 21.164 20.0939 20.9762L18.6797 19.562C18.4673 19.7743 18.3523 19.8882 18.2631 19.9631C18.185 20.0289 18.1945 20.005 18.2554 19.9863L18.842 21.8983ZM17.8619 21.9472C18.1876 22.0125 18.5244 21.9957 18.842 21.8983L18.2554 19.9863H18.2554L17.8619 21.9472ZM16.5245 21.1542C16.7301 21.3224 16.9327 21.4894 17.1166 21.6151C17.3122 21.7488 17.5555 21.8857 17.8619 21.9472L18.2554 19.9863C18.3178 19.9988 18.3297 20.0217 18.2453 19.964C18.1492 19.8983 18.0234 19.7965 17.791 19.6063L16.5245 21.1542ZM16.603 21.2123L16.603 21.2123L17.7124 19.5482L17.7124 19.5482L16.603 21.2123ZM15.5678 20.3715C15.4348 20.3754 15.414 20.3114 15.6243 20.4508C15.8266 20.5848 16.0922 20.8005 16.5245 21.1542L17.791 19.6063C17.3927 19.2805 17.0355 18.9866 16.7291 18.7836C16.4308 18.5859 16.0157 18.3575 15.5092 18.3724L15.5678 20.3715ZM15.5678 20.3715H15.5678L15.5092 18.3724C15.0195 18.3867 14.5521 18.5803 14.1957 18.9165L15.5678 20.3715ZM15.4448 21.6017C15.5004 21.0458 15.5357 20.7054 15.5839 20.4676C15.6341 20.2202 15.6647 20.2802 15.5678 20.3715L14.1957 18.9165C13.8271 19.2641 13.695 19.7192 13.6239 20.0699C13.5508 20.4301 13.506 20.8906 13.4548 21.4026L15.4448 21.6017ZM15.0597 23.1086C15.2329 22.8484 15.3082 22.5794 15.352 22.3465C15.3931 22.1275 15.4184 21.8661 15.4448 21.6017L13.4548 21.4026C13.4249 21.7016 13.4079 21.8626 13.3864 21.9771C13.3675 22.0776 13.3597 22.0531 13.395 22L15.0597 23.1086ZM14.3325 23.7667C14.6257 23.6111 14.8756 23.3849 15.0597 23.1086L13.395 22L13.395 22L14.3325 23.7667ZM12.7948 24C13.0605 24 13.3231 24.0009 13.5451 23.9817C13.7812 23.9613 14.0563 23.9132 14.3325 23.7667L13.395 22C13.4513 21.9701 13.475 21.9803 13.3731 21.9891C13.2571 21.9991 13.0952 22 12.7948 22V24ZM11.4051 24H12.7948V22H11.4051V24ZM9.86774 23.7668C10.1438 23.9133 10.4189 23.9614 10.655 23.9817C10.8769 24.0009 11.1394 24 11.4051 24V22C11.1048 22 10.9429 21.9991 10.8269 21.9891C10.7251 21.9803 10.7487 21.9701 10.805 22L9.86774 23.7668ZM9.14023 23.1084C9.32431 23.3849 9.57433 23.6111 9.86773 23.7668L10.805 22L10.805 22L9.14023 23.1084ZM8.75521 21.6019C8.78164 21.8662 8.80691 22.1276 8.84803 22.3465C8.8918 22.5794 8.96702 22.8483 9.14023 23.1084L10.805 22C10.8403 22.053 10.8325 22.0776 10.8136 21.9772C10.7921 21.8627 10.7752 21.7017 10.7453 21.4029L8.75521 21.6019ZM8.63222 20.372C8.53537 20.2806 8.56594 20.2207 8.61612 20.468C8.66436 20.7057 8.69963 21.0461 8.75521 21.6019L10.7453 21.4029C10.6941 20.8909 10.6493 20.4304 10.5762 20.0702C10.505 19.7195 10.373 19.2645 10.0043 18.9168L8.63222 20.372ZM8.63221 20.372H8.63222L10.0043 18.9168C9.64791 18.5808 9.18056 18.3872 8.69091 18.3728L8.63221 20.372ZM7.67554 21.1547C8.10786 20.801 8.37348 20.5852 8.57571 20.4512C8.78605 20.3119 8.76526 20.3759 8.63221 20.372L8.69091 18.3728C8.18443 18.3579 7.76929 18.5864 7.47099 18.784C7.16459 18.987 6.80729 19.281 6.40907 19.6068L7.67554 21.1547ZM7.66698 21.1616L7.667 21.1616L6.41761 19.5999L6.41759 19.5999L7.66698 21.1616ZM6.338 21.9477C6.64443 21.8862 6.88775 21.7493 7.0834 21.6156C7.26725 21.4899 7.46993 21.3229 7.67553 21.1547L6.40905 19.6068C6.17663 19.7969 6.0508 19.8988 5.95465 19.9645C5.8703 20.0222 5.88214 19.9993 5.94461 19.9868L6.338 21.9477ZM5.35804 21.8988C5.67557 21.9962 6.01236 22.013 6.338 21.9477L5.9446 19.9868H5.94461L5.35804 21.8988ZM4.10607 20.9767C4.2939 21.1645 4.47897 21.3508 4.6494 21.4942C4.83076 21.6467 5.05925 21.8072 5.35805 21.8988L5.94461 19.9868C6.00552 20.0055 6.01502 20.0294 5.93683 19.9636C5.84769 19.8886 5.73263 19.7748 5.52028 19.5625L4.10607 20.9767ZM3.12328 19.9939L4.10607 20.9767L5.52028 19.5625L4.5375 18.5797L3.12328 19.9939ZM2.20113 18.7419C2.2928 19.0407 2.45325 19.2692 2.60581 19.4506C2.74917 19.621 2.93545 19.8061 3.12328 19.9939L4.5375 18.5797C4.32515 18.3673 4.21131 18.2523 4.13634 18.1631C4.07057 18.0849 4.0945 18.0944 4.11318 18.1554L2.20113 18.7419ZM2.15226 17.7619C2.08692 18.0876 2.10372 18.4244 2.20113 18.7419L4.11318 18.1554V18.1554L2.15226 17.7619ZM2.94526 16.4244C2.77705 16.63 2.6101 16.8327 2.48442 17.0166C2.35066 17.2122 2.21373 17.4555 2.15226 17.762L4.11318 18.1554C4.10065 18.2178 4.07779 18.2297 4.13545 18.1453C4.20119 18.0492 4.30301 17.9233 4.49318 17.6909L2.94526 16.4244ZM3.72799 15.4678C3.72408 15.3347 3.78809 15.314 3.64872 15.5243C3.51471 15.7265 3.29897 15.9921 2.94526 16.4244L4.49318 17.6909C4.81899 17.2927 5.1129 16.9354 5.31592 16.629C5.51358 16.3307 5.74198 15.9156 5.72713 15.4091L3.72799 15.4678ZM3.72799 15.4678H3.72799L5.72713 15.4091C5.71276 14.9194 5.51916 14.4521 5.18306 14.0957L3.72799 15.4678ZM2.49808 15.3448C3.05388 15.4004 3.39423 15.4356 3.63198 15.4839C3.87925 15.5341 3.8193 15.5646 3.72799 15.4678L5.18306 14.0957C4.83544 13.727 4.3804 13.595 4.02972 13.5238C3.66951 13.4507 3.20905 13.4059 2.69708 13.3547L2.49808 15.3448ZM2.59757 15.3498H2.59758V13.3498H2.59757V15.3498ZM0.991627 14.9598C1.25177 15.133 1.52063 15.2082 1.75354 15.252C1.9724 15.2931 2.23376 15.3184 2.49806 15.3448L2.69707 13.3547C2.39828 13.3248 2.23732 13.3079 2.12285 13.2864C2.02244 13.2675 2.04697 13.2597 2.10001 13.295L0.991627 14.9598ZM0.333199 14.2322C0.488854 14.5257 0.715141 14.7757 0.991628 14.9598L2.10001 13.295H2.10001L0.333199 14.2322ZM0.100006 12.695C0.100006 12.9606 0.0991415 13.2232 0.118281 13.445C0.138649 13.6811 0.186746 13.9562 0.333199 14.2322L2.10001 13.295C2.12986 13.3513 2.11966 13.3749 2.11088 13.2731C2.10087 13.1571 2.10001 12.9952 2.10001 12.695H0.100006ZM0.100006 11.3052V12.695H2.10001V11.3052H0.100006ZM0.333302 9.76757C0.186785 10.0437 0.138666 10.3188 0.118289 10.5549C0.0991411 10.7769 0.100006 11.0395 0.100006 11.3052H2.10001C2.10001 11.0048 2.10087 10.8429 2.11089 10.7269C2.11967 10.6251 2.12987 10.6487 2.10001 10.705L0.333302 9.76757ZM0.991444 9.04033C0.715103 9.22435 0.488919 9.47428 0.333301 9.76757L2.10001 10.705H2.10001L0.991444 9.04033ZM2.49821 8.65519C2.23385 8.68163 1.97243 8.7069 1.75351 8.74803C1.52055 8.79181 1.25163 8.86706 0.991447 9.04033L2.1 10.705C2.04697 10.7403 2.02242 10.7325 2.12286 10.7136C2.23735 10.6921 2.39835 10.6752 2.69722 10.6453L2.49821 8.65519ZM3.7284 8.53217C3.81972 8.4353 3.8797 8.46588 3.63237 8.51607C3.39457 8.56433 3.05414 8.5996 2.49821 8.65519L2.69722 10.6453C3.2093 10.5941 3.66987 10.5492 4.03015 10.4761C4.38091 10.4049 4.83605 10.2728 5.1837 9.90407L3.7284 8.53217ZM3.7284 8.53217L3.7284 8.53217L5.1837 9.90407C5.51959 9.54776 5.71309 9.0806 5.72753 8.59114L3.7284 8.53217ZM2.94545 7.57524C3.29926 8.00767 3.51506 8.27336 3.6491 8.47565C3.78851 8.68604 3.72447 8.66525 3.7284 8.53217L5.72753 8.59114C5.74247 8.08455 5.51402 7.66931 5.31633 7.37095C5.11326 7.06448 4.81927 6.70709 4.49337 6.30876L2.94545 7.57524ZM2.15225 6.23727C2.2137 6.5438 2.35066 6.78721 2.48445 6.98292C2.61018 7.16682 2.77718 7.36958 2.94545 7.57524L4.49337 6.30876C4.30314 6.07626 4.20127 5.95039 4.13551 5.8542C4.07783 5.76982 4.1007 5.78166 4.11323 5.84415L2.15225 6.23727ZM2.2011 5.25786C2.10379 5.57522 2.087 5.9118 2.15225 6.23727L4.11323 5.84415H4.11323L2.2011 5.25786ZM3.12346 4.00549C2.93558 4.19338 2.74923 4.3785 2.60584 4.54898C2.45324 4.73041 2.29274 4.95897 2.2011 5.25786L4.11323 5.84415C4.09455 5.90508 4.07061 5.91459 4.1364 5.83637C4.21139 5.74721 4.32527 5.63212 4.53768 5.41971L3.12346 4.00549ZM3.12347 4.00549L3.12346 4.00549L4.53768 5.41971L4.53768 5.4197L3.12347 4.00549ZM4.10612 3.02284L3.12347 4.00549L4.53768 5.4197L5.52033 4.43705L4.10612 3.02284ZM5.3581 2.10067C5.0593 2.19234 4.83082 2.3528 4.64945 2.50536C4.47902 2.64871 4.29395 2.83501 4.10612 3.02284L5.52033 4.43705C5.73268 4.2247 5.84774 4.11086 5.93688 4.03589C6.01507 3.97011 6.00557 3.99404 5.94466 4.01273L5.3581 2.10067ZM6.33805 2.0518C6.01241 1.98647 5.67562 2.00327 5.3581 2.10067L5.94465 4.01273L5.94466 4.01273L6.33805 2.0518ZM7.67566 2.84488C7.47004 2.67665 7.26733 2.50968 7.08348 2.38398C6.88783 2.25022 6.6445 2.11328 6.33805 2.0518L5.94466 4.01273C5.88217 4.00019 5.87034 3.97732 5.95471 4.03501C6.05089 4.10076 6.17673 4.20261 6.40918 4.3928L7.67566 2.84488ZM7.74953 2.91173L7.74953 2.91173L6.33532 4.32595L6.33532 4.32595L7.74953 2.91173ZM8.63226 3.62756C8.7653 3.62368 8.78607 3.68766 8.57573 3.54828C8.37352 3.41428 8.10793 3.19855 7.67566 2.84488L6.40919 4.3928C6.80737 4.71858 7.16461 5.01245 7.47095 5.21545C7.76917 5.41307 8.18421 5.64148 8.69058 5.62671L8.63226 3.62756ZM8.63226 3.62756L8.63226 3.62756L8.69058 5.62671C9.1805 5.61241 9.64811 5.41872 10.0046 5.08241L8.63226 3.62756ZM8.75523 2.39793C8.69966 2.9536 8.6644 3.29387 8.61618 3.53157C8.56602 3.77879 8.53546 3.71887 8.63226 3.62756L10.0046 5.08241C10.3731 4.73481 10.5051 4.27987 10.5762 3.92926C10.6493 3.56913 10.6941 3.10878 10.7453 2.59694L8.75523 2.39793ZM9.14009 0.891811C8.96696 1.15191 8.89176 1.42071 8.84802 1.65357C8.80691 1.87239 8.78165 2.13369 8.75523 2.39793L10.7453 2.59694C10.7752 2.29821 10.7921 2.13728 10.8136 2.02284C10.8325 1.92245 10.8403 1.94697 10.805 2L9.14009 0.891811ZM9.86797 0.233087C9.57438 0.388779 9.32422 0.615173 9.14009 0.89181L10.805 2L10.805 2L9.86797 0.233087ZM11.4049 0C11.1394 0 10.8768 -0.000864267 10.655 0.0182663C10.419 0.0386248 10.144 0.0866996 9.86797 0.233087L10.805 2C10.7487 2.02984 10.7251 2.01965 10.8269 2.01087C10.9429 2.00086 11.1047 2 11.4049 2V0ZM12.795 0H11.4049V2H12.795V0ZM14.3322 0.233195C14.0562 0.0867407 13.7811 0.0386428 13.545 0.0182747C13.3232 -0.000864625 13.0606 0 12.795 0V2C13.0953 2 13.2571 2.00086 13.3731 2.01087C13.4749 2.01966 13.4513 2.02986 13.395 2L14.3322 0.233195ZM15.0598 0.891617C14.8757 0.615134 14.6257 0.388849 14.3322 0.233194L13.395 2L13.395 2L15.0598 0.891617ZM15.5 12C15.5 13.8778 13.9778 15.4 12.1 15.4V17.4C15.0823 17.4 17.5 14.9823 17.5 12H15.5ZM12.1 8.6C13.9778 8.6 15.5 10.1222 15.5 12H17.5C17.5 9.01766 15.0823 6.6 12.1 6.6V8.6ZM8.70001 12C8.70001 10.1222 10.2222 8.6 12.1 8.6V6.6C9.11767 6.6 6.70001 9.01766 6.70001 12H8.70001ZM12.1 15.4C10.2222 15.4 8.70001 13.8778 8.70001 12H6.70001C6.70001 14.9823 9.11767 17.4 12.1 17.4V15.4Z" fill="#676D75"/>
</svg>
